<?xml version="1.0" encoding="utf-8"?>
<!-- Generator: Adobe Illustrator 16.2.1, SVG Export Plug-In . SVG Version: 6.00 Build 0)  -->
<!DOCTYPE svg PUBLIC "-//W3C//DTD SVG 1.1//EN" "http://www.w3.org/Graphics/SVG/1.1/DTD/svg11.dtd">
<svg version="1.1" id="Layer_1" xmlns="http://www.w3.org/2000/svg" xmlns:xlink="http://www.w3.org/1999/xlink" x="0px" y="0px"
	 width="177px" height="68px" viewBox="0 0 177 68" enable-background="new 0 0 177 68" xml:space="preserve">
<line fill="none" stroke="#FFFFFF" stroke-miterlimit="10" x1="0" y1="0" x2="177" y2="0"/>
<g>
	<line fill="none" stroke="#FFFFFF" stroke-miterlimit="10" x1="101.5" y1="0.493" x2="101.5" y2="34"/>
	<line fill="none" stroke="#FFFFFF" stroke-miterlimit="10" x1="176.5" y1="0.493" x2="176.5" y2="34"/>
	<line fill="none" stroke="#FFFFFF" stroke-miterlimit="10" x1="0.5" y1="0.493" x2="0.5" y2="34"/>
</g>
<g>
	<circle cx="122.091" cy="17.599" r="9.331"/>
	<g>
		<path fill="#FFFFFF" d="M119,21.282v-7.298l7.311,3.709L119,21.282z"/>
	</g>
</g>
<g>
	<circle cx="79.092" cy="17.599" r="9.331"/>
	<g>
		<path fill="#FFFFFF" d="M74.689,17.693L82,13.984v7.298L74.689,17.693z"/>
	</g>
</g>
<g>
	<text transform="matrix(0.9998 0 0 1 138.8359 16.9844)"><tspan x="0" y="0" fill="#231F20" font-family="'FranklinGothicEF-DemiCondIta'" font-size="9.0019" letter-spacing="1">next </tspan><tspan x="0" y="8.002" fill="#231F20" font-family="'FranklinGothicEF-DemiCondIta'" font-size="9.0019" letter-spacing="1">step</tspan></text>
</g>
<g>
	<text transform="matrix(0.9998 0 0 1 14.6235 16.9844)"><tspan x="0" y="0" fill="#231F20" font-family="'FranklinGothicEF-DemiCondIta'" font-size="9.0019" letter-spacing="1">previous</tspan><tspan x="24.98" y="8.002" fill="#231F20" font-family="'FranklinGothicEF-DemiCondIta'" font-size="9.0019" letter-spacing="1">step</tspan></text>
</g>
<line fill="none" stroke="#FFFFFF" stroke-miterlimit="10" x1="0" y1="34" x2="177" y2="34"/>
<g>
	<line fill="none" stroke="#FFFFFF" stroke-miterlimit="10" x1="101.5" y1="34.493" x2="101.5" y2="68"/>
	<line fill="none" stroke="#FFFFFF" stroke-miterlimit="10" x1="176.5" y1="34.493" x2="176.5" y2="68"/>
	<line fill="none" stroke="#FFFFFF" stroke-miterlimit="10" x1="0.5" y1="34.493" x2="0.5" y2="68"/>
</g>
<g>
	<circle cx="122.091" cy="51.599" r="9.331"/>
	<g>
		<path fill="#FFFFFF" d="M119,55.282v-7.298l7.311,3.709L119,55.282z"/>
	</g>
</g>
<g>
	<circle cx="79.092" cy="51.599" r="9.331"/>
	<g>
		<path fill="#FFFFFF" d="M74.689,51.693L82,47.984v7.298L74.689,51.693z"/>
	</g>
</g>
<g>
	<text transform="matrix(0.9998 0 0 1 138.8359 50.9844)"><tspan x="0" y="0" fill="#47B649" font-family="'FranklinGothicEF-DemiCondIta'" font-size="9.0019" letter-spacing="1">next </tspan><tspan x="0" y="8.002" fill="#47B649" font-family="'FranklinGothicEF-DemiCondIta'" font-size="9.0019" letter-spacing="1">step</tspan></text>
</g>
<g>
	<text transform="matrix(0.9998 0 0 1 14.6235 50.9844)"><tspan x="0" y="0" fill="#47B649" font-family="'FranklinGothicEF-DemiCondIta'" font-size="9.0019" letter-spacing="1">previous</tspan><tspan x="24.98" y="8.002" fill="#47B649" font-family="'FranklinGothicEF-DemiCondIta'" font-size="9.0019" letter-spacing="1">step</tspan></text>
</g>
</svg>
