<?xml version="1.0" encoding="utf-8"?>
<!-- Generator: Adobe Illustrator 16.2.1, SVG Export Plug-In . SVG Version: 6.00 Build 0)  -->
<!DOCTYPE svg PUBLIC "-//W3C//DTD SVG 1.1//EN" "http://www.w3.org/Graphics/SVG/1.1/DTD/svg11.dtd">
<svg version="1.1" id="Layer_1" xmlns="http://www.w3.org/2000/svg" xmlns:xlink="http://www.w3.org/1999/xlink" x="0px" y="0px"
	 width="36px" height="32px" viewBox="0 0 36 32" enable-background="new 0 0 36 32" xml:space="preserve">
<path fill="#B4B4B4" d="M34,0H2C0.896,0,0,0.896,0,2v28c0,1.104,0.896,2,2,2h32c1.104,0,2-0.896,2-2V2C36,0.896,35.104,0,34,0z
	 M30.5,28h-25c-0.552,0-1-0.448-1-1s0.448-1,1-1h25c0.553,0,1,0.448,1,1S31.053,28,30.5,28z M30.5,24h-25c-0.552,0-1-0.448-1-1
	s0.448-1,1-1h25c0.553,0,1,0.448,1,1S31.053,24,30.5,24z M30.5,20h-25c-0.552,0-1-0.448-1-1s0.448-1,1-1h25c0.553,0,1,0.448,1,1
	S31.053,20,30.5,20z M30.5,16h-25c-0.552,0-1-0.448-1-1s0.448-1,1-1h25c0.553,0,1,0.448,1,1S31.053,16,30.5,16z M30.5,12h-25
	c-0.552,0-1-0.448-1-1s0.448-1,1-1h25c0.553,0,1,0.448,1,1S31.053,12,30.5,12z M30.5,8h-3h-12h-3c-0.552,0-1-0.448-1-1s0.448-1,1-1
	h3h12h3c0.553,0,1,0.448,1,1S31.053,8,30.5,8z"/>
</svg>
