<?xml version="1.0" encoding="utf-8"?>
<!-- Generator: Adobe Illustrator 16.2.1, SVG Export Plug-In . SVG Version: 6.00 Build 0)  -->
<!DOCTYPE svg PUBLIC "-//W3C//DTD SVG 1.1//EN" "http://www.w3.org/Graphics/SVG/1.1/DTD/svg11.dtd">
<svg version="1.1" id="Layer_1" xmlns="http://www.w3.org/2000/svg" xmlns:xlink="http://www.w3.org/1999/xlink" x="0px" y="0px"
	 width="36px" height="32px" viewBox="0 0 36 32" enable-background="new 0 0 36 32" xml:space="preserve">
<g>
	<g>
		<path fill="#B4B4B4" d="M34,0H19v5.01c6,0.704,10.447,5.696,10.447,11.74c0,6.525-5.277,11.834-11.802,11.834
			c-6.525,0-11.854-5.309-11.854-11.834C5.792,10.764,10,5.813,16,5.036V0H2C0.896,0,0,0.896,0,2v28c0,1.104,0.896,2,2,2h32
			c1.104,0,2-0.896,2-2V2C36,0.896,35.104,0,34,0z"/>
		<path fill="#B4B4B4" d="M8.833,16.75c0,4.871,3.962,8.834,8.833,8.834S26.5,21.621,26.5,16.75c0-4.87-3.963-8.833-8.833-8.833
			S8.833,11.88,8.833,16.75z"/>
	</g>
	<g>
		<path fill="#FFFFFF" d="M20.459,12.308v1.526c-0.865,1.175-1.135,1.702-1.54,2.984c-0.445,1.377-0.621,2.606-0.648,4.497h-2.147
			c0.027-1.242,0.081-1.715,0.352-2.741c0.189-0.783,0.473-1.553,0.851-2.296c0.432-0.891,0.688-1.283,1.431-2.201h-3.794
			l0.148-1.769H20.459z"/>
	</g>
</g>
</svg>
