<?xml version="1.0" encoding="utf-8"?>
<!-- Generator: Adobe Illustrator 16.2.1, SVG Export Plug-In . SVG Version: 6.00 Build 0)  -->
<!DOCTYPE svg PUBLIC "-//W3C//DTD SVG 1.1//EN" "http://www.w3.org/Graphics/SVG/1.1/DTD/svg11.dtd">
<svg version="1.1" id="Layer_1" xmlns="http://www.w3.org/2000/svg" xmlns:xlink="http://www.w3.org/1999/xlink" x="0px" y="0px"
	 width="227px" height="80px" viewBox="0 0 227 80" enable-background="new 0 0 227 80" xml:space="preserve">
<path fill="#49B749" d="M178.24,35.796c0,0,9.318-9.204,30.321-22.525C179.55,34.575,172.829,80,172.829,80
	c6.427-15.059,19.362-20.271,19.362-20.271C194.678,27.344,227,0,227,0c-39.356,19.212-45.4,19.367-45.4,19.367
	S181.441,29.548,178.24,35.796"/>
<path fill="#010101" d="M18.908,21c3.863,0,6.769,0.805,8.716,2.414c1.942,1.606,2.812,3.85,2.611,6.724
	c-0.137,1.95-0.593,3.635-1.375,5.061c-0.777,1.42-1.832,2.59-3.167,3.497c-1.329,0.914-2.901,1.908-4.707,2.337
	C19.174,41.469,17.173,42,14.976,42h-4.219L7.655,54H0l8.097-33H18.908z M15.547,36c2.007,0,3.632-0.699,4.865-1.334
	c1.235-0.64,1.91-1.956,2.022-3.574c0.05-0.713-0.04-1.406-0.269-1.885c-0.23-0.487-0.562-0.914-1.007-1.192
	c-0.451-0.278-0.992-0.105-1.632-0.216C18.885,27.687,18.179,28,17.404,28h-3.155l-1.999,8H15.547z"/>
<path fill="#010101" d="M55.134,54h-8.723l-4.594-13h-3.155l-3.153,13h-7.513l8.097-33h11.224c3.619,0,6.389,0.767,8.305,2.298
	c1.92,1.529,2.783,3.674,2.588,6.426c-0.183,2.659-1.063,4.828-2.636,6.514c-1.571,1.685-3.612,2.917-6.13,3.539L55.134,54z
	 M43.504,35c2.07,0,3.705-0.306,4.897-0.985c1.187-0.676,1.836-1.74,1.94-3.214c0.093-1.349-0.32-1.923-1.245-2.416
	C48.176,27.895,46.909,28,45.302,28h-3.297l-1.935,7H43.504z"/>
<polygon fill="#010101" points="58.425,54 66.524,21 74.269,21 66.172,54 "/>
<polygon fill="#010101" points="101.267,54 107.227,31 107.04,31 92.638,54 87.207,54 84.492,31 84.309,31 78.718,54 71.485,54 
	79.583,21 90.387,21 92.707,43 92.887,43 105.464,21 116.923,21 108.825,54 "/>
<polygon fill="#010101" points="148.631,54 156.727,21 164.473,21 158.007,47 170.902,47 169.23,54 "/>
<path fill="#010101" d="M143.362,34.673l-0.064-0.59L141.741,21h-7.514l-23.222,33h8.818c0,0,1.581-2.015,3.166-3.986
	c3.487-3.99,7.07-6.945,13.523-9.979L137.547,54h8.115L143.362,34.673z M128.371,40.45l7.258-11.002l0.883,10.468L128.371,40.45z"/>
<g>
	<path fill="#010101" d="M196.149,57H194.5v1.844l0,0V57h-0.359l0,0H196.149L196.149,57z M198.5,59h-1v-2h0.854l-0.732,2h-0.205
		l-0.731-2H196.5v2h-1v-2h1.347l0.681,1.664L198.205,57h0.295V59z"/>
</g>
</svg>
