<?xml version="1.0" encoding="utf-8"?>
<!-- Generator: Adobe Illustrator 16.2.1, SVG Export Plug-In . SVG Version: 6.00 Build 0)  -->
<!DOCTYPE svg PUBLIC "-//W3C//DTD SVG 1.1//EN" "http://www.w3.org/Graphics/SVG/1.1/DTD/svg11.dtd">
<svg version="1.1" id="Layer_1" xmlns="http://www.w3.org/2000/svg" xmlns:xlink="http://www.w3.org/1999/xlink" x="0px" y="0px"
	 width="249px" height="71px" viewBox="0 0 249 71" enable-background="new 0 0 249 71" xml:space="preserve">
<path id="instagram_box" fill="#FFFFFF" d="M247.729,0h-25.425C221.56,0,221,0.609,221,1.361v25.683c0,0.752,0.56,0.956,1.304,0.956
	h10.119l3.376,6.948L239.287,28h8.441c0.744,0,1.271-0.204,1.271-0.956V1.361C249,0.609,248.473,0,247.729,0z"/>
<path id="mail_box" fill="#FFFFFF" d="M211.572,0h-25.425C185.403,0,185,0.609,185,1.361v25.683c0,0.752,0.403,0.956,1.147,0.956
	h10.119l3.376,6.948L203.131,28h8.441c0.744,0,1.428-0.204,1.428-0.956V1.361C213,0.609,212.316,0,211.572,0z"/>
<path id="pinterest_box" fill="#FFFFFF" d="M175.415,0h-25.423C149.247,0,149,0.609,149,1.361v25.683
	c0,0.752,0.247,0.956,0.992,0.956h9.219l3.376,6.948L166.074,28h9.341c0.745,0,1.585-0.204,1.585-0.956V1.361
	C177,0.609,176.16,0,175.415,0z"/>
<path id="google_box" fill="#FFFFFF" d="M138.255,0h-25.424C112.086,0,111,0.609,111,1.361v25.683c0,0.752,1.086,0.956,1.831,0.956
	h9.325l3.376,6.948L129.019,28h9.236C139,28,140,27.796,140,27.044V1.361C140,0.609,139,0,138.255,0z"/>
<path id="linked_in_box" fill="#FFFFFF" d="M101.093,0H75.671C74.926,0,74,0.609,74,1.361v25.683C74,27.796,74.926,28,75.671,28
	H85.1l3.376,6.948L91.963,28h9.13c0.746,0,0.907-0.204,0.907-0.956V1.361C102,0.609,101.839,0,101.093,0z"/>
<path id="facebook_box" fill="#FFFFFF" d="M63.933,0H38.51C37.765,0,37,0.609,37,1.361v25.683C37,27.796,37.765,28,38.51,28h9.533
	l3.376,6.948L54.907,28h9.026C64.678,28,65,27.796,65,27.044V1.361C65,0.609,64.678,0,63.933,0z"/>
<path id="twitter_box" fill="#FFFFFF" d="M26.772,0H1.349C0.604,0,0,0.609,0,1.361v25.683C0,27.796,0.604,28,1.349,28h9.638
	l3.376,6.948L17.852,28h8.921C27.518,28,28,27.796,28,27.044V1.361C28,0.609,27.518,0,26.772,0z"/>
<path id="instagram" fill-rule="evenodd" clip-rule="evenodd" fill="#010101" d="M244,7.079C244,5.959,243.101,5,241.991,5h-13.982
	C226.899,5,226,5.959,226,7.079v14.124c0,1.121,0.899,1.797,2.009,1.797h13.982c1.109,0,2.009-0.676,2.009-1.797V7.079z
	 M234.985,17.563c-1.855,0-3.358-1.519-3.358-3.392c0-1.874,1.503-3.394,3.358-3.394c1.854,0,3.358,1.52,3.358,3.394
	C238.344,16.044,236.84,17.563,234.985,17.563z M242,8.108C242,8.65,241.564,9,241.027,9h-2.055C238.436,9,238,8.65,238,8.108V8.054
	C238,7.51,238.436,7,238.973,7h2.055C241.564,7,242,7.51,242,8.054V8.108z"/>
<g id="mail">
	<g>
		<path fill-rule="evenodd" clip-rule="evenodd" fill="#010101" d="M197.688,14.055c-0.038-0.026-0.075-0.034-0.111-0.065
			c-0.686-0.581-5.182-4.494-6.271-5.444v11.184L197.688,14.055z"/>
		<path fill-rule="evenodd" clip-rule="evenodd" fill="#010101" d="M207.259,8.514c-1.026,0.88-5.648,4.844-6.304,5.476
			c-0.003,0.003-0.006,0.003-0.009,0.008l6.312,5.61V8.514z"/>
		<path fill-rule="evenodd" clip-rule="evenodd" fill="#010101" d="M200.492,14.33c-0.47,0.328-0.753,0.256-1.013,0.276
			c-0.088,0.008-0.336,0-0.427,0c-0.271,0-0.418-0.037-0.82-0.276l-6.277,5.712h15.304l-0.521-0.03L200.492,14.33z"/>
	</g>
	<path fill-rule="evenodd" clip-rule="evenodd" fill="#010101" d="M199.283,13.733c0,0,0.755,0.04,1.252-0.432
		c0.577-0.547,4.094-3.596,5.577-4.878h-13.661c1.476,1.287,4.986,4.352,5.581,4.878c0.533,0.472,1.239,0.432,1.239,0.432
		S199.281,13.733,199.283,13.733"/>
</g>
<path id="pinterest" fill="#010101" d="M158.465,21.551c0,0-0.018-0.836,0.077-1.657c0.069-0.607,1.471-6.696,1.471-6.696
	s-0.379-0.875-0.288-2.095c0.062-0.853,0.475-1.488,0.676-1.762c0.283-0.378,1.178-0.987,2.156-0.465
	c0.403,0.213,0.501,0.706,0.603,1.059c0.254,0.915-0.521,3.001-0.69,3.351c-0.173,0.35-0.332,1.124-0.26,1.477
	c0.06,0.288,0.303,1.22,1.166,1.349c0.86,0.13,1.632,0.18,2.493-0.951c0.863-1.135,1.335-3.094,1.382-4.181
	c0.042-1.087-0.015-2.11-0.839-3.119c-0.826-1.008-2.953-2.186-5.795-1.055c-2.84,1.127-3.056,4.338-2.972,4.866
	c0.088,0.524,0.088,1.133,0.432,1.526c0.346,0.393,0.517,0.794,0.517,0.794s-0.171,0.686-0.258,0.989
	c-0.087,0.307-0.214,0.566-0.475,0.435c-0.257-0.128-2.065-1.043-2.236-2.956c-0.173-1.916,0.312-3.646,1.12-4.788
	c0.932-1.319,2.283-2.228,3.357-2.663c1.077-0.435,4.063-1.133,6.692,0.425c2.432,1.45,2.907,3.187,3.036,4.545
	c0.152,1.6-0.248,4.008-0.988,5.264c-0.82,1.38-1.781,2.271-3.358,2.655c-1.826,0.438-2.756-0.049-3.23-0.397
	c-0.475-0.346-0.683-0.867-0.683-0.867c-0.633,2.37-0.566,2.342-0.682,2.807c0,0-0.387,1.179-0.529,1.452
	c-0.175,0.343-0.646,1.087-0.646,1.087s-0.929,1.597-1.102,1.597C158.438,23.577,158.465,21.551,158.465,21.551z"/>
<g id="google_plus">
	<path fill-rule="evenodd" clip-rule="evenodd" fill="#010101" d="M127.715,6.624c-0.489,0.53-1.079,0.96-2.254,0.799
		c1.498,0.767,1.631,3.41,0.472,4.658c-0.738,0.789-1.977,1.302-0.947,2.487c1.042,1.194,2.45,1.318,2.412,3.602
		c-0.058,3.979-6.894,4.24-8.75,1.958c-0.267-0.331-0.467-0.858-0.471-1.271c-0.046-2.216,2.615-3.48,5.237-3.335
		c-0.33-0.362-0.828-1.375-0.367-2.116c-2.393,0.037-4.018-1.343-3.88-3.55c0.114-1.759,1.746-3.055,3.67-3.231
		C124.323,6.496,126.059,6.726,127.715,6.624z M121.421,7.742c-1.526,1.505-0.063,5.299,2.046,5.189
		c2.902-0.158,1.669-6.144-1.256-5.562C121.893,7.428,121.59,7.574,121.421,7.742z M119.849,18.119
		c-0.347,2.944,4.539,3.504,5.923,1.746c0.366-0.463,0.604-1.442,0.315-2.17c-0.137-0.351-0.507-0.652-0.834-0.9
		c-0.703-0.537-1.415-0.921-2.521-0.799C121.319,16.155,120.015,16.747,119.849,18.119z"/>
	<path fill-rule="evenodd" clip-rule="evenodd" fill="#010101" d="M132.744,6.624c0,1.006,0,2.013,0,3.02c0.979,0,1.957,0,2.935,0
		c0,0.249,0,0.499,0,0.738c-0.96,0-1.919,0-2.885,0c-0.116,0.886-0.013,1.999-0.05,2.97c-0.259,0-0.523,0-0.785,0
		c0-0.99,0-1.978,0-2.97c-0.979,0-1.955,0-2.938,0c0-0.239,0-0.489,0-0.738c0.964,0,1.924,0,2.888,0
		c0.12-0.896,0.014-2.032,0.051-3.02C132.221,6.624,132.485,6.624,132.744,6.624z"/>
</g>
<g id="linked_in">
	<path fill="#010101" d="M80.707,21.184v-9.411h3.143v9.411H80.707z"/>
	<path fill="#010101" d="M96.44,21.184h-3.186v-4.077c0-1.18-0.05-2.208-0.169-2.553c-0.112-0.344-0.298-0.62-0.555-0.808
		c-0.258-0.193-0.567-0.287-0.926-0.287c-0.457,0-0.871,0.132-1.242,0.411c-0.365,0.278-0.618,0.636-0.753,1.089
		c-0.137,0.454-0.205,1.554-0.205,2.771v3.454h-3.122v-9.423h2.935v1.599c0.879-1.231,1.986-1.845,3.323-1.845
		c0.583,0,1.434,0,2.132,0.34c0.479,0.241,0.854,0.526,1.104,0.877c0.249,0.359,0.427,0.765,0.52,1.213
		c0.099,0.458,0.143,1.104,0.143,1.943V21.184z"/>
	<path fill="#010101" d="M84.112,8.583c0,0.94-0.828,1.705-1.852,1.705c-1.017,0-1.844-0.765-1.844-1.705
		c0-0.939,0.827-1.699,1.844-1.699C83.284,6.883,84.112,7.644,84.112,8.583z"/>
</g>
<path id="facebook" fill="#010101" d="M46.82,10.37v2.975h2.24v8.77h3.831v-8.77h2.709V10.37h-2.662V9.559
	c0,0,0.076-0.725,0.538-1.106C53.898,8.1,54.342,8.1,54.342,8.1h1.335V5.269h-2.312c0,0-1.553-0.105-2.786,0.695
	c-1.279,0.831-1.35,2.708-1.35,2.708l-0.075,1.697H46.82z"/>
<g id="twitter">
	<path fill-rule="evenodd" clip-rule="evenodd" fill="#010101" d="M23.362,8.966c-0.083,0.651-1.02,1.312-1.59,1.807
		c0.561,8.365-8.797,13.582-15.618,9.343c1.914,0.015,4.036-0.512,5.173-1.606c-1.653-0.269-2.83-1.029-3.283-2.511
		c0.483-0.048,1.166,0.105,1.493-0.101c-1.514-0.584-2.714-1.479-2.785-3.518c0.54,0.057,0.818,0.379,1.492,0.3
		c-0.981-0.63-2.098-3.044-1.099-4.821c1.776,1.993,3.996,3.535,7.463,3.821c-0.86-3.695,3.987-5.984,6.171-3.32
		c0.847-0.177,1.558-0.497,2.282-0.802c-0.293,0.835-0.899,1.369-1.493,1.908C22.215,9.348,22.894,9.258,23.362,8.966z"/>
</g>
<path id="instagram_box_2_" fill="#49B749" d="M247.729,36h-25.425C221.56,36,221,36.609,221,37.361v25.683
	c0,0.752,0.56,0.956,1.304,0.956h10.119l3.376,6.948L239.287,64h8.441c0.744,0,1.271-0.204,1.271-0.956V37.361
	C249,36.609,248.473,36,247.729,36z"/>
<path id="mail_box_2_" fill="#49B749" d="M211.572,36h-25.425c-0.744,0-1.147,0.609-1.147,1.361v25.683
	c0,0.752,0.403,0.956,1.147,0.956h10.119l3.376,6.948L203.131,64h8.441c0.744,0,1.428-0.204,1.428-0.956V37.361
	C213,36.609,212.316,36,211.572,36z"/>
<path id="pinterest_box_2_" fill="#49B749" d="M175.415,36h-25.423c-0.745,0-0.992,0.609-0.992,1.361v25.683
	c0,0.752,0.247,0.956,0.992,0.956h9.219l3.376,6.948L166.074,64h9.341c0.745,0,1.585-0.204,1.585-0.956V37.361
	C177,36.609,176.16,36,175.415,36z"/>
<path id="google_box_2_" fill="#49B749" d="M138.255,36h-25.424c-0.744,0-1.831,0.609-1.831,1.361v25.683
	c0,0.752,1.086,0.956,1.831,0.956h9.325l3.376,6.948L129.019,64h9.236C139,64,140,63.796,140,63.044V37.361
	C140,36.609,139,36,138.255,36z"/>
<path id="linked_in_box_2_" fill="#49B749" d="M101.093,36H75.671C74.926,36,74,36.609,74,37.361v25.683
	C74,63.796,74.926,64,75.671,64H85.1l3.376,6.948L91.963,64h9.13c0.746,0,0.907-0.204,0.907-0.956V37.361
	C102,36.609,101.839,36,101.093,36z"/>
<path id="facebook_box_2_" fill="#49B749" d="M63.933,36H38.51C37.765,36,37,36.609,37,37.361v25.683C37,63.796,37.765,64,38.51,64
	h9.533l3.376,6.948L54.907,64h9.026C64.678,64,65,63.796,65,63.044V37.361C65,36.609,64.678,36,63.933,36z"/>
<path id="twitter_box_2_" fill="#49B749" d="M26.772,36H1.349C0.604,36,0,36.609,0,37.361v25.683C0,63.796,0.604,64,1.349,64h9.638
	l3.376,6.948L17.852,64h8.921C27.518,64,28,63.796,28,63.044V37.361C28,36.609,27.518,36,26.772,36z"/>
<path id="instagram_2_" fill-rule="evenodd" clip-rule="evenodd" fill="#010101" d="M244,43.079c0-1.12-0.899-2.079-2.009-2.079
	h-13.982c-1.109,0-2.009,0.959-2.009,2.079v14.124c0,1.121,0.899,1.797,2.009,1.797h13.982c1.109,0,2.009-0.676,2.009-1.797V43.079z
	 M234.985,53.563c-1.855,0-3.358-1.519-3.358-3.392c0-1.874,1.503-3.394,3.358-3.394c1.854,0,3.358,1.52,3.358,3.394
	C238.344,52.044,236.84,53.563,234.985,53.563z M242,44.108c0,0.542-0.436,0.892-0.973,0.892h-2.055
	c-0.537,0-0.973-0.35-0.973-0.892v-0.055c0-0.543,0.436-1.054,0.973-1.054h2.055c0.537,0,0.973,0.51,0.973,1.054V44.108z"/>
<g id="mail_2_">
	<g>
		<path fill-rule="evenodd" clip-rule="evenodd" fill="#010101" d="M197.688,50.055c-0.038-0.026-0.075-0.034-0.111-0.065
			c-0.686-0.581-5.182-4.494-6.271-5.444v11.184L197.688,50.055z"/>
		<path fill-rule="evenodd" clip-rule="evenodd" fill="#010101" d="M207.259,44.514c-1.026,0.88-5.648,4.844-6.304,5.476
			c-0.003,0.003-0.006,0.003-0.009,0.008l6.312,5.61V44.514z"/>
		<path fill-rule="evenodd" clip-rule="evenodd" fill="#010101" d="M200.492,50.33c-0.47,0.328-0.753,0.256-1.013,0.276
			c-0.088,0.008-0.336,0-0.427,0c-0.271,0-0.418-0.037-0.82-0.276l-6.277,5.712h15.304l-0.521-0.03L200.492,50.33z"/>
	</g>
	<path fill-rule="evenodd" clip-rule="evenodd" fill="#010101" d="M199.283,49.733c0,0,0.755,0.04,1.252-0.432
		c0.577-0.547,4.094-3.596,5.577-4.878h-13.661c1.476,1.287,4.986,4.352,5.581,4.878c0.533,0.472,1.239,0.432,1.239,0.432
		S199.281,49.733,199.283,49.733"/>
</g>
<path id="pinterest_2_" fill="#010101" d="M158.465,57.551c0,0-0.018-0.836,0.077-1.657c0.069-0.607,1.471-6.696,1.471-6.696
	s-0.379-0.875-0.288-2.095c0.062-0.853,0.475-1.488,0.676-1.762c0.283-0.378,1.178-0.987,2.156-0.465
	c0.403,0.213,0.501,0.706,0.603,1.059c0.254,0.915-0.521,3.001-0.69,3.351c-0.173,0.35-0.332,1.124-0.26,1.477
	c0.06,0.288,0.303,1.22,1.166,1.349c0.86,0.13,1.632,0.18,2.493-0.951c0.863-1.135,1.335-3.094,1.382-4.181
	c0.042-1.087-0.015-2.11-0.839-3.119c-0.826-1.008-2.953-2.186-5.795-1.055c-2.84,1.127-3.056,4.338-2.972,4.866
	c0.088,0.524,0.088,1.133,0.432,1.526c0.346,0.393,0.517,0.794,0.517,0.794s-0.171,0.686-0.258,0.989
	c-0.087,0.307-0.214,0.566-0.475,0.435c-0.257-0.128-2.065-1.043-2.236-2.956c-0.173-1.916,0.312-3.646,1.12-4.788
	c0.932-1.319,2.283-2.228,3.357-2.663c1.077-0.435,4.063-1.133,6.692,0.425c2.432,1.45,2.907,3.187,3.036,4.545
	c0.152,1.6-0.248,4.008-0.988,5.264c-0.82,1.38-1.781,2.271-3.358,2.655c-1.826,0.438-2.756-0.049-3.23-0.397
	c-0.475-0.346-0.683-0.867-0.683-0.867c-0.633,2.37-0.566,2.342-0.682,2.807c0,0-0.387,1.179-0.529,1.452
	c-0.175,0.343-0.646,1.087-0.646,1.087s-0.929,1.597-1.102,1.597C158.438,59.577,158.465,57.551,158.465,57.551z"/>
<g id="google_plus_2_">
	<path fill-rule="evenodd" clip-rule="evenodd" fill="#010101" d="M127.715,42.624c-0.489,0.53-1.079,0.96-2.254,0.799
		c1.498,0.767,1.631,3.41,0.472,4.658c-0.738,0.789-1.977,1.302-0.947,2.487c1.042,1.194,2.45,1.318,2.412,3.602
		c-0.058,3.979-6.894,4.24-8.75,1.958c-0.267-0.331-0.467-0.858-0.471-1.271c-0.046-2.216,2.615-3.48,5.237-3.335
		c-0.33-0.362-0.828-1.375-0.367-2.116c-2.393,0.037-4.018-1.343-3.88-3.55c0.114-1.759,1.746-3.055,3.67-3.231
		C124.323,42.496,126.059,42.726,127.715,42.624z M121.421,43.742c-1.526,1.505-0.063,5.299,2.046,5.189
		c2.902-0.158,1.669-6.144-1.256-5.562C121.893,43.428,121.59,43.574,121.421,43.742z M119.849,54.119
		c-0.347,2.944,4.539,3.504,5.923,1.746c0.366-0.463,0.604-1.442,0.315-2.17c-0.137-0.351-0.507-0.652-0.834-0.9
		c-0.703-0.537-1.415-0.921-2.521-0.799C121.319,52.155,120.015,52.747,119.849,54.119z"/>
	<path fill-rule="evenodd" clip-rule="evenodd" fill="#010101" d="M132.744,42.624c0,1.006,0,2.013,0,3.02c0.979,0,1.957,0,2.935,0
		c0,0.249,0,0.499,0,0.738c-0.96,0-1.919,0-2.885,0c-0.116,0.886-0.013,1.999-0.05,2.97c-0.259,0-0.523,0-0.785,0
		c0-0.99,0-1.978,0-2.97c-0.979,0-1.955,0-2.938,0c0-0.239,0-0.489,0-0.738c0.964,0,1.924,0,2.888,0
		c0.12-0.896,0.014-2.032,0.051-3.02C132.221,42.624,132.485,42.624,132.744,42.624z"/>
</g>
<g id="linked_in_2_">
	<path fill="#010101" d="M80.707,57.184v-9.411h3.143v9.411H80.707z"/>
	<path fill="#010101" d="M96.44,57.184h-3.186v-4.077c0-1.18-0.05-2.208-0.169-2.553c-0.112-0.344-0.298-0.62-0.555-0.808
		c-0.258-0.193-0.567-0.287-0.926-0.287c-0.457,0-0.871,0.132-1.242,0.411c-0.365,0.278-0.618,0.636-0.753,1.089
		c-0.137,0.454-0.205,1.554-0.205,2.771v3.454h-3.122v-9.423h2.935v1.599c0.879-1.231,1.986-1.845,3.323-1.845
		c0.583,0,1.434,0,2.132,0.34c0.479,0.241,0.854,0.526,1.104,0.877c0.249,0.359,0.427,0.765,0.52,1.213
		c0.099,0.458,0.143,1.104,0.143,1.943V57.184z"/>
	<path fill="#010101" d="M84.112,44.583c0,0.94-0.828,1.705-1.852,1.705c-1.017,0-1.844-0.765-1.844-1.705
		c0-0.939,0.827-1.699,1.844-1.699C83.284,42.883,84.112,43.644,84.112,44.583z"/>
</g>
<path id="facebook_2_" fill="#010101" d="M46.82,46.37v2.975h2.24v8.77h3.831v-8.77h2.709V46.37h-2.662v-0.811
	c0,0,0.076-0.725,0.538-1.106c0.421-0.353,0.865-0.353,0.865-0.353h1.335v-2.831h-2.312c0,0-1.553-0.105-2.786,0.695
	c-1.279,0.831-1.35,2.708-1.35,2.708l-0.075,1.697H46.82z"/>
<g id="twitter_2_">
	<path fill-rule="evenodd" clip-rule="evenodd" fill="#010101" d="M23.362,44.966c-0.083,0.651-1.02,1.312-1.59,1.807
		c0.561,8.365-8.797,13.582-15.618,9.343c1.914,0.015,4.036-0.512,5.173-1.606c-1.653-0.269-2.83-1.029-3.283-2.511
		c0.483-0.048,1.166,0.105,1.493-0.101c-1.514-0.584-2.714-1.479-2.785-3.518c0.54,0.057,0.818,0.379,1.492,0.3
		c-0.981-0.63-2.098-3.044-1.099-4.821c1.776,1.993,3.996,3.535,7.463,3.821c-0.86-3.695,3.987-5.984,6.171-3.32
		c0.847-0.177,1.558-0.497,2.282-0.802c-0.293,0.835-0.899,1.369-1.493,1.908C22.215,45.348,22.894,45.258,23.362,44.966z"/>
</g>
</svg>
