<?xml version="1.0" encoding="utf-8"?>
<!-- Generator: Adobe Illustrator 16.2.1, SVG Export Plug-In . SVG Version: 6.00 Build 0)  -->
<!DOCTYPE svg PUBLIC "-//W3C//DTD SVG 1.1//EN" "http://www.w3.org/Graphics/SVG/1.1/DTD/svg11.dtd">
<svg version="1.1" id="Layer_1" xmlns="http://www.w3.org/2000/svg" xmlns:xlink="http://www.w3.org/1999/xlink" x="0px" y="0px"
	 width="36px" height="14px" viewBox="-433.622 337.495 36 14" enable-background="new -433.622 337.495 36 14"
	 xml:space="preserve">
<g>
	<path fill="#CDCCCC" d="M-433.34,344.975c0.455-0.469,1.137-0.514,1.639-0.09l3.051,2.703l-0.092-0.559v-8.396
		c0-0.604,0.502-1.139,1.117-1.139c0.615,0,1.138,0.514,1.138,1.117v8.395l-0.112,0.627l3.097-2.748
		c0.455-0.424,1.139-0.379,1.593,0.09c0.411,0.402,0.389,1.139-0.111,1.541l-5.604,4.979l-5.625-4.979
		C-433.705,346.069-433.751,345.401-433.34,344.975z"/>
</g>
<g>
	<path fill="#32C22F" d="M-409.34,344.975c0.455-0.469,1.137-0.514,1.639-0.09l3.051,2.703l-0.092-0.559v-8.396
		c0-0.604,0.502-1.139,1.117-1.139c0.615,0,1.138,0.514,1.138,1.117v8.395l-0.112,0.627l3.097-2.748
		c0.455-0.424,1.139-0.379,1.593,0.09c0.411,0.402,0.389,1.139-0.111,1.541l-5.604,4.979l-5.625-4.979
		C-409.705,346.069-409.751,345.401-409.34,344.975z"/>
</g>
</svg>
