<?xml version="1.0" encoding="utf-8"?>
<!-- Generator: Adobe Illustrator 16.2.1, SVG Export Plug-In . SVG Version: 6.00 Build 0)  -->
<!DOCTYPE svg PUBLIC "-//W3C//DTD SVG 1.1//EN" "http://www.w3.org/Graphics/SVG/1.1/DTD/svg11.dtd">
<svg version="1.1" id="Layer_1" xmlns="http://www.w3.org/2000/svg" xmlns:xlink="http://www.w3.org/1999/xlink" x="0px" y="0px"
	 width="36px" height="14px" viewBox="-433.622 337.495 36 14" enable-background="new -433.622 337.495 36 14"
	 xml:space="preserve">
<g>
	<path fill="#CDCCCC" d="M-433.25,342.473l5.625-4.979l5.604,4.979c0.5,0.402,0.522,1.139,0.111,1.541
		c-0.454,0.469-1.138,0.514-1.593,0.09l-3.097-2.748l0.112,0.627v8.395c0,0.604-0.522,1.117-1.138,1.117
		c-0.615,0-1.117-0.535-1.117-1.139v-8.396l0.092-0.559l-3.051,2.703c-0.501,0.424-1.184,0.379-1.639-0.09
		C-433.751,343.588-433.705,342.92-433.25,342.473z"/>
</g>
<g>
	<path fill="#32C22F" d="M-409.25,342.473l5.625-4.979l5.604,4.979c0.5,0.402,0.522,1.139,0.111,1.541
		c-0.454,0.469-1.138,0.514-1.593,0.09l-3.097-2.748l0.112,0.627v8.395c0,0.604-0.522,1.117-1.138,1.117
		c-0.615,0-1.117-0.535-1.117-1.139v-8.396l0.092-0.559l-3.051,2.703c-0.501,0.424-1.184,0.379-1.639-0.09
		C-409.751,343.588-409.705,342.92-409.25,342.473z"/>
</g>
</svg>
